<?xml version="1.0" encoding="UTF-8" standalone="no"?>
<!-- Created with Inkscape (http://www.inkscape.org/) -->

<svg
   xmlns:dc="http://purl.org/dc/elements/1.1/"
   xmlns:cc="http://creativecommons.org/ns#"
   xmlns:rdf="http://www.w3.org/1999/02/22-rdf-syntax-ns#"
   xmlns:svg="http://www.w3.org/2000/svg"
   xmlns="http://www.w3.org/2000/svg"
   xmlns:sodipodi="http://sodipodi.sourceforge.net/DTD/sodipodi-0.dtd"
   xmlns:inkscape="http://www.inkscape.org/namespaces/inkscape"
   width="132.23875mm"
   height="94.554062mm"
   viewBox="0 0 468.56253 335.03408"
   id="svg2"
   version="1.1"
   inkscape:version="0.91 r13725"
   sodipodi:docname="Aiga coatcheck.svg">
  <title
     id="title4163">Aiga coatcheck</title>
  <defs
     id="defs4" />
  <sodipodi:namedview
     id="base"
     pagecolor="#ffffff"
     bordercolor="#666666"
     borderopacity="1.0"
     inkscape:pageopacity="0.0"
     inkscape:pageshadow="2"
     inkscape:zoom="0.7"
     inkscape:cx="553.42058"
     inkscape:cy="434.18114"
     inkscape:document-units="px"
     inkscape:current-layer="layer1"
     showgrid="false"
     fit-margin-top="0"
     fit-margin-left="0"
     fit-margin-right="0"
     fit-margin-bottom="0"
     inkscape:window-width="1728"
     inkscape:window-height="1089"
     inkscape:window-x="-8"
     inkscape:window-y="-8"
     inkscape:window-maximized="1" />
  <metadata
     id="metadata7">
    <rdf:RDF>
      <cc:Work
         rdf:about="">
        <dc:format>image/svg+xml</dc:format>
        <dc:type
           rdf:resource="http://purl.org/dc/dcmitype/StillImage" />
        <dc:title>Aiga coatcheck</dc:title>
      </cc:Work>
    </rdf:RDF>
  </metadata>
  <g
     inkscape:label="Calque 1"
     inkscape:groupmode="layer"
     id="layer1"
     transform="translate(2227.068,-1037.4221)">
    <path
       style="fill:#000000"
       d="m -2190.064,1371.5592 c -12.4853,-2.1536 -23.9515,-9.7818 -30.797,-20.4885 -10.3724,-16.2229 -7.4118,-42.1282 6.3928,-55.9367 2.7883,-2.7891 36.5625,-23.0861 105.7974,-63.5801 l 101.7016,-59.4832 -0.2974,-8.1849 c -0.2737,-7.5336 -0.5361,-8.4352 -3.2974,-11.331 -1.65,-1.7303 -6.571,-5.6533 -10.9355,-8.7176 -10.9838,-7.7117 -15.8857,-13.0912 -20.5953,-22.6021 -8.0329,-16.2223 -7.7069,-33.7627 0.951,-51.1644 12.8544,-25.8364 36.6117,-37.1205 65.3371,-31.0333 20.02,4.2424 37.8905,21.6462 43.2143,42.0856 3.0911,11.8674 1.6197,19.5263 -4.841,25.1989 -4.3055,3.7803 -7.2649,4.6953 -12.7893,3.9543 -7.2333,-0.9701 -10.8944,-5.9647 -12.8171,-17.4853 -1.6314,-9.7753 -5.5887,-15.6913 -13.0242,-19.471 -10.3396,-5.2558 -20.5332,-4.492 -29.8186,2.2344 -9.0598,6.5628 -12.147,21.4346 -6.7427,32.4807 3.057,6.2483 6.5268,9.4799 14.5002,13.5049 7.9065,3.9911 15.1215,10.8201 18.5121,17.5215 2.6314,5.2009 2.9293,6.8831 3.464,19.5623 l 0.585,13.8722 100,59.0994 c 71.9473,42.5205 101.3559,60.4146 104.8336,63.7875 12.335,11.963 15.6053,30.9124 8.5769,49.6975 -5.2989,14.1625 -17.9109,23.6618 -35.1239,26.4551 -7.4694,1.2121 -385.7648,1.2351 -392.7866,0.024 z m 390.8102,-34.0141 c 3.5698,-2.1765 6.1898,-7.1688 6.1898,-11.7944 0,-7.068 0.8211,-6.531 -101.5311,-66.4042 -53.3329,-31.1983 -97.6439,-56.716 -98.4689,-56.706 -0.825,0.01 -45.6,25.7612 -99.5,57.2251 -91.1087,53.1841 -98.1303,57.4736 -99.8531,60.9995 -2.5891,5.2988 -1.5296,10.0582 3.3184,14.9062 l 3.7994,3.7994 191.3676,0 c 190.1782,0 191.3883,-0.016 194.6779,-2.0219 z"
       id="path4323"
       inkscape:connector-curvature="0" />
  </g>
</svg>
