<?xml version="1.0" encoding="utf-8"?>
<svg viewBox="144.949 80.17 71.549 73.094" fill="#ffffff" width="71.549" height="73.094" xmlns="http://www.w3.org/2000/svg">
  <path d="M 215.373 86.264 C 214.673 86.264 214.073 86.864 213.873 86.964 L 208.073 92.564 C 196.373 80.664 182.773 77.264 167.873 82.664 C 156.073 86.964 148.373 95.664 145.073 108.564 C 144.773 109.564 145.073 110.164 145.373 110.564 C 146.073 111.464 147.273 111.564 147.473 111.564 L 156.673 111.564 C 156.673 111.564 156.673 111.564 156.673 111.564 C 156.873 111.564 158.573 111.464 159.473 109.364 C 163.073 100.264 169.673 95.264 179.073 94.464 C 186.473 93.864 192.873 96.664 198.073 102.764 L 191.973 108.964 C 191.473 109.464 191.273 110.064 191.473 110.564 C 191.773 111.364 192.873 111.464 193.073 111.564 L 214.473 111.564 C 214.473 111.564 214.573 111.564 214.573 111.564 C 215.473 111.364 216.373 110.764 216.373 109.564 L 216.373 87.864 C 216.473 86.364 215.573 86.264 215.373 86.264 Z M 213.973 121.864 L 204.673 121.864 C 204.473 121.864 202.773 121.964 201.873 124.064 C 198.273 133.164 191.673 138.164 182.273 138.964 C 174.873 139.564 168.473 136.764 163.273 130.664 L 169.373 124.464 C 169.873 123.964 170.073 123.364 169.873 122.864 C 169.573 122.064 168.473 121.964 168.273 121.864 L 146.873 121.864 C 146.873 121.864 146.773 121.864 146.773 121.864 C 145.873 122.064 144.973 122.664 144.973 123.864 L 144.973 145.564 C 144.973 147.064 145.873 147.164 146.073 147.164 C 146.773 147.164 147.373 146.564 147.573 146.464 L 153.373 140.864 C 161.473 149.064 170.473 153.264 180.173 153.264 C 184.473 153.264 188.973 152.464 193.573 150.764 C 205.373 146.464 213.073 137.764 216.373 124.864 C 216.673 123.864 216.373 123.264 216.073 122.864 C 215.373 121.964 214.173 121.864 213.973 121.864 Z"/>
</svg>