<svg xmlns="http://www.w3.org/2000/svg" height="190.28125" width="190">
  <path d="m 95,184.29006 c -18.067595,0 -34.831053,-5.46987 -48.863052,-14.71467 l -14.714666,14.71467 0,-50.86217 50.862174,0 -17.483872,17.48387 c 9.027639,4.90502 19.210008,7.94722 30.199416,7.94722 35.11675,0 63.57771,-28.45481 63.57771,-63.577721 0,-35.116765 -28.46096,-63.577715 -63.57771,-63.577715 -35.122914,0 -63.577718,28.46095 -63.577718,63.577715 l -25.4310877,0 C 5.9911943,46.120184 45.838927,6.272474 95,6.272474 c 49.16107,0 89.00881,39.84771 89.00881,89.008785 0,49.161081 -39.84774,89.008801 -89.00881,89.008801 z" style="fill:#000;"/>
</svg>
